<svg width="143" height="78" viewBox="0 0 143 78" fill="none" xmlns="http://www.w3.org/2000/svg">
<g filter="url(#filter0_d_2818_4605)">
<path fill-rule="evenodd" clip-rule="evenodd" d="M50.5628 65.6486C51.6772 65.8938 52.6355 66.0163 53.4378 66.0163C55.3767 66.0163 57.1262 65.4146 58.6862 64.2111C60.2463 63.0077 61.4274 61.6148 62.2298 60.0324L63.1658 65.4815H68.782V43.4642H76.4916L72.3923 65.4815H81.1175L82.6218 55.252H93.1855L94.7567 65.4815H103.448L99.3363 43.4642H117.694C118.025 43.4642 118.345 43.4211 118.65 43.3401L120.096 45.1563C121.679 47.1843 122.737 48.9004 123.272 50.3044C123.829 51.7085 124.108 53.0457 124.108 54.316C124.108 57.5921 122.436 59.2301 119.093 59.2301C117.155 59.2301 115.717 58.4167 114.781 56.7898C113.845 55.1406 113.377 52.7782 113.377 49.7027V47.1621H106.658C106.368 48.3432 106.145 49.4576 105.989 50.505C105.855 51.5525 105.788 52.6891 105.788 53.9148C105.788 55.9429 106.178 57.8818 106.959 59.7316C107.761 61.5813 109.131 63.0968 111.07 64.278C113.032 65.4369 115.728 66.0163 119.16 66.0163C123.35 66.0163 126.704 64.8686 129.223 62.5731C131.741 60.2553 133 57.1241 133 53.1794C133 50.5496 132.51 48.165 131.529 46.0255C130.571 43.8637 129.167 41.5905 127.317 39.2058L117.255 26.4357C116.43 25.3214 115.75 24.2405 115.216 23.1931C114.681 22.1233 114.413 20.9421 114.413 19.6495C114.413 18.1341 114.826 16.9306 115.65 16.0391C116.497 15.1254 117.734 14.6685 119.361 14.6685C121.144 14.6685 122.514 15.482 123.473 17.1089C124.431 18.7358 124.91 21.0536 124.91 24.0622V26.8035H131.596C131.841 25.5554 132.053 24.4188 132.231 23.3936C132.432 22.3462 132.532 21.2096 132.532 19.9838C132.532 18.0449 132.131 16.1506 131.329 14.3008C130.549 12.451 129.2 10.9244 127.284 9.72095C125.367 8.4952 122.726 7.88232 119.361 7.88232C115.193 7.88232 111.928 9.09693 109.566 11.5261C107.226 13.9331 106.056 17.0309 106.056 20.8196C106.056 23.3379 106.491 25.6223 107.36 27.6726C107.608 28.2435 107.883 28.8143 108.185 29.3851H96.7068L92.7844 8.38377H83.0229L79.1129 29.3851H49.7271V24.2628C49.7271 20.6078 50.1394 18.1006 50.964 16.7412C51.7886 15.3594 53.1146 14.6685 54.9421 14.6685C58.3519 14.6685 60.0568 17.7998 60.0568 24.0622V26.8035H66.7427C66.9879 25.5554 67.1996 24.4188 67.3779 23.3936C67.5562 22.3462 67.6453 21.2096 67.6453 19.9838C67.6453 17.7775 67.2442 15.7606 66.4419 13.9331C65.6619 12.0833 64.3581 10.6124 62.5306 9.52037C60.7254 8.42834 58.2739 7.88232 55.1761 7.88232C54.0841 7.88232 52.8918 7.99376 51.5992 8.21662C50.3065 8.4172 49.0139 8.86292 47.7213 9.5538C46.4287 10.2224 45.2475 11.2476 44.1778 12.6293C43.1303 13.9888 42.2834 15.8163 41.6371 18.1118C40.9908 20.385 40.6677 23.2376 40.6677 26.6697V29.3851H13.7136C11.6626 29.3851 10 31.0477 10 33.0987V39.7506C10 41.8016 11.6626 43.4642 13.7136 43.4642H40.6677V46.8946C40.6677 50.3267 40.9686 53.1905 41.5703 55.486C42.1943 57.7815 42.9966 59.6313 43.9772 61.0353C44.9801 62.4394 46.0498 63.498 47.1865 64.2111C48.3453 64.9243 49.4708 65.4035 50.5628 65.6486ZM49.7271 43.4642V50.0036C49.7271 53.5471 50.1505 55.9763 50.9974 57.2912C51.8443 58.5838 53.1815 59.2301 55.009 59.2301C56.9256 59.2301 58.3185 58.3053 59.1877 56.4555C60.0568 54.5834 60.4914 52.2768 60.4914 49.5356V43.4642H49.7271ZM84.3827 43.4642L83.6247 48.7333H92.1826L91.4308 43.4642H84.3827ZM89.4219 29.3851H86.4081L87.7365 20.151H88.1042L89.4219 29.3851Z" fill="url(#paint0_linear_2818_4605)"/>
<path d="M59.5762 33.4248H60.6865V39.8725H62.1998V40.7471H59.5762V33.4248ZM77.4549 33.4248H80.2544V34.2993H78.5653V36.49H79.89V37.3646H78.5653V39.8725H80.2544V40.7471H77.4549V33.4248ZM95.6252 33.4248H98.4247V34.2993H96.7356V36.49H98.0603V37.3646H96.7356V39.8725H98.4247V40.7471H95.6252V33.4248ZM114.636 34.2993H113.457V33.4248H116.921V34.2993H115.746V40.7471H114.636V34.2993Z" fill="white"/>
</g>
<defs>
<filter id="filter0_d_2818_4605" x="0.408604" y="0.504327" width="142.183" height="77.3166" filterUnits="userSpaceOnUse" color-interpolation-filters="sRGB">
<feFlood flood-opacity="0" result="BackgroundImageFix"/>
<feColorMatrix in="SourceAlpha" type="matrix" values="0 0 0 0 0 0 0 0 0 0 0 0 0 0 0 0 0 0 127 0" result="hardAlpha"/>
<feOffset dy="2.2134"/>
<feGaussianBlur stdDeviation="4.7957"/>
<feComposite in2="hardAlpha" operator="out"/>
<feColorMatrix type="matrix" values="0 0 0 0 0 0 0 0 0 0 0 0 0 0 0 0 0 0 0.25 0"/>
<feBlend mode="normal" in2="BackgroundImageFix" result="effect1_dropShadow_2818_4605"/>
<feBlend mode="normal" in="SourceGraphic" in2="effect1_dropShadow_2818_4605" result="shape"/>
</filter>
<linearGradient id="paint0_linear_2818_4605" x1="71.5001" y1="7.88232" x2="71.5001" y2="66.0163" gradientUnits="userSpaceOnUse">
<stop offset="0.453125" stop-color="#076C93"/>
<stop offset="1" stop-color="#DD3510" stop-opacity="0.89"/>
</linearGradient>
</defs>
</svg>
